<svg width="138" height="124" viewBox="0 0 138 124" fill="none" xmlns="http://www.w3.org/2000/svg">
  <path
    d="M69 124C30.2931 124 0 113.088 0 99.2V24.8C0 10.9122 30.2931 0 69 0C107.707 0 138 10.9122 138 24.8V99.2C138 113.088 107.707 124 69 124ZM6.57143 85.1636V99.2002C6.57143 108.774 31.6737 119.041 69 119.041C106.328 119.041 131.429 108.775 131.429 99.2002V85.1636C120.454 93.5443 96.9286 99.2002 69 99.2002C41.0714 99.2002 17.5463 93.5443 6.57143 85.1636ZM6.57143 74.4002C6.57143 83.9743 31.6737 94.2407 69 94.2407C106.328 94.2407 131.429 83.9746 131.429 74.4002V60.3636C120.454 68.7443 96.9286 74.4002 69 74.4002C41.0714 74.4002 17.5463 68.7443 6.57143 60.3636V74.4002ZM6.57143 49.6002C6.57143 59.1726 31.6737 69.4407 69 69.4407C106.328 69.4407 131.429 59.1737 131.429 49.6002V35.5636C120.454 43.9458 96.9286 49.6002 69 49.6002C41.0714 49.6002 17.5463 43.946 6.57143 35.5636V49.6002ZM69 4.96022C31.6749 4.96022 6.57143 15.2272 6.57143 24.8007C6.57143 34.373 31.6737 44.6411 69 44.6411C106.328 44.6411 131.429 34.3741 131.429 24.8007C131.429 15.2283 106.327 4.96022 69 4.96022Z"
    fill="black" />
</svg>