<svg width="27" height="40" viewBox="0 0 98 132" fill="none" xmlns="http://www.w3.org/2000/svg">
  <path
    d="M97.2575 34.6623L63.3412 0.743528C62.8656 0.267896 62.2221 0 61.5474 0H2.53633C1.1347 0 0 1.13373 0 2.53633V129.365C0 130.767 1.1347 131.901 2.53633 131.901H95.4637C96.8663 131.901 98 130.767 98 129.365V36.455C98 35.7814 97.7331 35.1369 97.2574 34.6613L97.2575 34.6623ZM64.0817 8.66038L80.3732 24.9528L89.3401 33.9208L64.0812 33.9198L64.0817 8.66038ZM5.0731 126.829V5.07469H59.0076V36.4563C59.0076 37.8589 60.1413 38.9927 61.5439 38.9927H92.9256V126.828L5.0731 126.829Z"
    fill="black" />
</svg>